ffmpeg version N-101030-g129bab5c7e-ge0fd35d867+2 Copyright (c) 2000-2021 the FFmpeg developers
  built with gcc 10.2.0 (Rev6, Built by MSYS2 project)
  configuration:  --pkg-config=pkgconf --cc='ccache gcc' --cxx='ccache g++' --disable-autodetect --enable-amf --enable-bzlib --enable-cuda --enable-cuvid --enable-d3d11va --enable-dxva2 --enable-iconv --enable-lzma --enable-nvenc --enable-zlib --enable-sdl2 --enable-ffnvcodec --enable-nvdec --enable-cuda-llvm --enable-libmp3lame --enable-libopus --enable-libvorbis --enable-libvpx --enable-libx264 --enable-libx265 --enable-libdav1d --enable-libaom --disable-debug --enable-fontconfig --enable-libass --enable-libbluray --enable-libfreetype --enable-libmfx --enable-libmysofa --enable-libopencore-amrnb --enable-libopencore-amrwb --enable-libopenjpeg --enable-libsnappy --enable-libsoxr --enable-libspeex --enable-libtheora --enable-libtwolame --enable-libvidstab --enable-libvo-amrwbenc --enable-libwebp --enable-libxml2 --enable-libzimg --enable-libshine --enable-gpl --enable-avisynth --enable-libxvid --enable-libopenmpt --enable-version3 --enable-libsrt --enable-libgsm --enable-libvmaf --enable-libsvtav1 --enable-librtmp --enable-mbedtls --extra-cflags=-DLIBTWOLAME_STATIC --extra-libs=-lstdc++ --extra-cflags=-DLIBXML_STATIC --extra-libs=-liconv --disable-w32threads
  libavutil      56. 64.100 / 56. 64.100
  libavcodec     58.122.100 / 58.122.100
  libavformat    58. 67.100 / 58. 67.100
  libavdevice    58. 11.103 / 58. 11.103
  libavfilter     7.103.100 /  7.103.100
  libswscale      5.  8.100 /  5.  8.100
  libswresample   3.  8.100 /  3.  8.100
  libpostproc    55.  8.100 / 55.  8.100
Splitting the commandline.
Reading option '-v' ... matched as option 'v' (set logging level) with argument 'debug'.
Reading option '-nostdin' ... matched as option 'stdin' (enable or disable interaction on standard input) with argument 0.
Reading option '-progress' ... matched as option 'progress' (write program-readable progress information) with argument 'C:/Users/Acer/AppData/Local/Temp/KritaFFmpegProgress.hpuOTF'.
Reading option '-r' ... matched as option 'r' (set frame rate (Hz value, fraction or abbreviation)) with argument '24'.
Reading option '-start_number' ... matched as AVOption 'start_number' with argument '0'.
Reading option '-i' ... matched as input url with argument 'D:/Peliprojektit/Projektit/Baltic_Loop/Krita_animaatiot/frame%04d.png'.
Reading option '-i' ... matched as input url with argument 'D:/Peliprojektit/Projektit/Baltic_Loop/Krita_animaatiot/palette.png'.
Reading option '-lavfi' ... matched as option 'lavfi' (create a complex filtergraph) with argument '[0:v][1:v] paletteuse'.
Reading option '-y' ... matched as option 'y' (overwrite output files) with argument '1'.
Reading option 'D:/Peliprojektit/Projektit/Baltic_Loop/Krita_animaatiot/monkey.gif' ... matched as output url.
Finished splitting the commandline.
Parsing a group of options: global .
Applying option v (set logging level) with argument debug.
Applying option nostdin (enable or disable interaction on standard input) with argument 0.
Applying option progress (write program-readable progress information) with argument C:/Users/Acer/AppData/Local/Temp/KritaFFmpegProgress.hpuOTF.
[file @ 000001c5ea3edc00] Setting default whitelist 'file,crypto,data'
Applying option lavfi (create a complex filtergraph) with argument [0:v][1:v] paletteuse.
Applying option y (overwrite output files) with argument 1.
Successfully parsed a group of options.
Parsing a group of options: input url D:/Peliprojektit/Projektit/Baltic_Loop/Krita_animaatiot/frame%04d.png.
Applying option r (set frame rate (Hz value, fraction or abbreviation)) with argument 24.
Successfully parsed a group of options.
Opening an input file: D:/Peliprojektit/Projektit/Baltic_Loop/Krita_animaatiot/frame%04d.png.
[image2 @ 000001c5ea42e000] Opening 'D:/Peliprojektit/Projektit/Baltic_Loop/Krita_animaatiot/frame0000.png' for reading
[file @ 000001c5ea432b00] Setting default whitelist 'file,crypto,data'
[AVIOContext @ 000001c5ea43acc0] Statistics: 43574 bytes read, 0 seeks
[image2 @ 000001c5ea42e000] Opening 'D:/Peliprojektit/Projektit/Baltic_Loop/Krita_animaatiot/frame0001.png' for reading
[file @ 000001c5ea445a80] Setting default whitelist 'file,crypto,data'
[AVIOContext @ 000001c5ea445c00] Statistics: 50673 bytes read, 0 seeks
[image2 @ 000001c5ea42e000] Opening 'D:/Peliprojektit/Projektit/Baltic_Loop/Krita_animaatiot/frame0002.png' for reading
[file @ 000001c5ea445b40] Setting default whitelist 'file,crypto,data'
[AVIOContext @ 000001c5ea445e40] Statistics: 56239 bytes read, 0 seeks
[image2 @ 000001c5ea42e000] Opening 'D:/Peliprojektit/Projektit/Baltic_Loop/Krita_animaatiot/frame0003.png' for reading
[file @ 000001c5ea445b40] Setting default whitelist 'file,crypto,data'
[AVIOContext @ 000001c5ea446000] Statistics: 59798 bytes read, 0 seeks
[image2 @ 000001c5ea42e000] Opening 'D:/Peliprojektit/Projektit/Baltic_Loop/Krita_animaatiot/frame0004.png' for reading
[file @ 000001c5ea445b40] Setting default whitelist 'file,crypto,data'
[AVIOContext @ 000001c5ea4461c0] Statistics: 65069 bytes read, 0 seeks
[image2 @ 000001c5ea42e000] Opening 'D:/Peliprojektit/Projektit/Baltic_Loop/Krita_animaatiot/frame0005.png' for reading
[file @ 000001c5ea445b40] Setting default whitelist 'file,crypto,data'
[AVIOContext @ 000001c5ea446380] Statistics: 69004 bytes read, 0 seeks
[image2 @ 000001c5ea42e000] Opening 'D:/Peliprojektit/Projektit/Baltic_Loop/Krita_animaatiot/frame0006.png' for reading
[file @ 000001c5ea445b40] Setting default whitelist 'file,crypto,data'
[AVIOContext @ 000001c5ea446540] Statistics: 75048 bytes read, 0 seeks
[image2 @ 000001c5ea42e000] Opening 'D:/Peliprojektit/Projektit/Baltic_Loop/Krita_animaatiot/frame0007.png' for reading
[file @ 000001c5ea445b40] Setting default whitelist 'file,crypto,data'
[AVIOContext @ 000001c5ea446700] Statistics: 81305 bytes read, 0 seeks
[image2 @ 000001c5ea42e000] Opening 'D:/Peliprojektit/Projektit/Baltic_Loop/Krita_animaatiot/frame0008.png' for reading
[file @ 000001c5ea445b40] Setting default whitelist 'file,crypto,data'
[AVIOContext @ 000001c5eb026cc0] Statistics: 87419 bytes read, 0 seeks
[image2 @ 000001c5ea42e000] Opening 'D:/Peliprojektit/Projektit/Baltic_Loop/Krita_animaatiot/frame0009.png' for reading
[file @ 000001c5eb026cc0] Setting default whitelist 'file,crypto,data'
[AVIOContext @ 000001c5ea445b40] Statistics: 96427 bytes read, 0 seeks
[image2 @ 000001c5ea42e000] Opening 'D:/Peliprojektit/Projektit/Baltic_Loop/Krita_animaatiot/frame0010.png' for reading
[file @ 000001c5ea445b40] Setting default whitelist 'file,crypto,data'
[AVIOContext @ 000001c5ea438cc0] Statistics: 100014 bytes read, 0 seeks
[image2 @ 000001c5ea42e000] Opening 'D:/Peliprojektit/Projektit/Baltic_Loop/Krita_animaatiot/frame0011.png' for reading
[file @ 000001c5ea438cc0] Setting default whitelist 'file,crypto,data'
[AVIOContext @ 000001c5ea438dc0] Statistics: 102279 bytes read, 0 seeks
[image2 @ 000001c5ea42e000] Opening 'D:/Peliprojektit/Projektit/Baltic_Loop/Krita_animaatiot/frame0012.png' for reading
[file @ 000001c5ea439d00] Setting default whitelist 'file,crypto,data'
[AVIOContext @ 000001c5ea439e00] Statistics: 106462 bytes read, 0 seeks
[image2 @ 000001c5ea42e000] Opening 'D:/Peliprojektit/Projektit/Baltic_Loop/Krita_animaatiot/frame0013.png' for reading
[file @ 000001c5ea439d00] Setting default whitelist 'file,crypto,data'
[AVIOContext @ 000001c5ea439e00] Statistics: 109374 bytes read, 0 seeks
[image2 @ 000001c5ea42e000] Opening 'D:/Peliprojektit/Projektit/Baltic_Loop/Krita_animaatiot/frame0014.png' for reading
[file @ 000001c5ea439d00] Setting default whitelist 'file,crypto,data'
[AVIOContext @ 000001c5ea439e00] Statistics: 113595 bytes read, 0 seeks
[image2 @ 000001c5ea42e000] Opening 'D:/Peliprojektit/Projektit/Baltic_Loop/Krita_animaatiot/frame0015.png' for reading
[file @ 000001c5ea439d00] Setting default whitelist 'file,crypto,data'
[AVIOContext @ 000001c5ea439e00] Statistics: 120331 bytes read, 0 seeks
[image2 @ 000001c5ea42e000] Opening 'D:/Peliprojektit/Projektit/Baltic_Loop/Krita_animaatiot/frame0016.png' for reading
[file @ 000001c5ea439d00] Setting default whitelist 'file,crypto,data'
[AVIOContext @ 000001c5ea439e00] Statistics: 129486 bytes read, 0 seeks
[image2 @ 000001c5ea42e000] Opening 'D:/Peliprojektit/Projektit/Baltic_Loop/Krita_animaatiot/frame0017.png' for reading
[file @ 000001c5ea439d00] Setting default whitelist 'file,crypto,data'
[AVIOContext @ 000001c5ea439e00] Statistics: 136429 bytes read, 0 seeks
[image2 @ 000001c5ea42e000] Opening 'D:/Peliprojektit/Projektit/Baltic_Loop/Krita_animaatiot/frame0018.png' for reading
[file @ 000001c5ea439d00] Setting default whitelist 'file,crypto,data'
[AVIOContext @ 000001c5ea439e00] Statistics: 142216 bytes read, 0 seeks
[image2 @ 000001c5ea42e000] Opening 'D:/Peliprojektit/Projektit/Baltic_Loop/Krita_animaatiot/frame0019.png' for reading
[file @ 000001c5ea439d00] Setting default whitelist 'file,crypto,data'
[AVIOContext @ 000001c5ea439e00] Statistics: 146084 bytes read, 0 seeks
[image2 @ 000001c5ea42e000] Opening 'D:/Peliprojektit/Projektit/Baltic_Loop/Krita_animaatiot/frame0020.png' for reading
[file @ 000001c5ea439d00] Setting default whitelist 'file,crypto,data'
[AVIOContext @ 000001c5ea439e00] Statistics: 148153 bytes read, 0 seeks
[image2 @ 000001c5ea42e000] Opening 'D:/Peliprojektit/Projektit/Baltic_Loop/Krita_animaatiot/frame0021.png' for reading
[file @ 000001c5ea439d00] Setting default whitelist 'file,crypto,data'
[AVIOContext @ 000001c5ea439e00] Statistics: 149045 bytes read, 0 seeks
[image2 @ 000001c5ea42e000] Opening 'D:/Peliprojektit/Projektit/Baltic_Loop/Krita_animaatiot/frame0022.png' for reading
[file @ 000001c5ea439d00] Setting default whitelist 'file,crypto,data'
[AVIOContext @ 000001c5ea439e00] Statistics: 153335 bytes read, 0 seeks
[image2 @ 000001c5ea42e000] Opening 'D:/Peliprojektit/Projektit/Baltic_Loop/Krita_animaatiot/frame0023.png' for reading
[file @ 000001c5ea439d00] Setting default whitelist 'file,crypto,data'
[AVIOContext @ 000001c5ea439e00] Statistics: 158015 bytes read, 0 seeks
[image2 @ 000001c5ea42e000] Opening 'D:/Peliprojektit/Projektit/Baltic_Loop/Krita_animaatiot/frame0024.png' for reading
[file @ 000001c5ea439d00] Setting default whitelist 'file,crypto,data'
[AVIOContext @ 000001c5eb226a80] Statistics: 164860 bytes read, 0 seeks
[image2 @ 000001c5ea42e000] Opening 'D:/Peliprojektit/Projektit/Baltic_Loop/Krita_animaatiot/frame0025.png' for reading
[file @ 000001c5ea439d00] Setting default whitelist 'file,crypto,data'
[AVIOContext @ 000001c5eb226a80] Statistics: 168894 bytes read, 0 seeks
[image2 @ 000001c5ea42e000] Opening 'D:/Peliprojektit/Projektit/Baltic_Loop/Krita_animaatiot/frame0026.png' for reading
[file @ 000001c5ea439d00] Setting default whitelist 'file,crypto,data'
[AVIOContext @ 000001c5eb226a80] Statistics: 175401 bytes read, 0 seeks
[image2 @ 000001c5ea42e000] Opening 'D:/Peliprojektit/Projektit/Baltic_Loop/Krita_animaatiot/frame0027.png' for reading
[file @ 000001c5ea439d00] Setting default whitelist 'file,crypto,data'
[AVIOContext @ 000001c5eb226a80] Statistics: 184677 bytes read, 0 seeks
[image2 @ 000001c5ea42e000] Opening 'D:/Peliprojektit/Projektit/Baltic_Loop/Krita_animaatiot/frame0028.png' for reading
[file @ 000001c5ea439d00] Setting default whitelist 'file,crypto,data'
[AVIOContext @ 000001c5eb226a80] Statistics: 188087 bytes read, 0 seeks
[image2 @ 000001c5ea42e000] Opening 'D:/Peliprojektit/Projektit/Baltic_Loop/Krita_animaatiot/frame0029.png' for reading
[file @ 000001c5ea439d00] Setting default whitelist 'file,crypto,data'
[AVIOContext @ 000001c5eb226a80] Statistics: 194252 bytes read, 0 seeks
[image2 @ 000001c5ea42e000] Opening 'D:/Peliprojektit/Projektit/Baltic_Loop/Krita_animaatiot/frame0030.png' for reading
[file @ 000001c5ea439d00] Setting default whitelist 'file,crypto,data'
[AVIOContext @ 000001c5eb226a80] Statistics: 199863 bytes read, 0 seeks
[image2 @ 000001c5ea42e000] Opening 'D:/Peliprojektit/Projektit/Baltic_Loop/Krita_animaatiot/frame0031.png' for reading
[file @ 000001c5ea439d00] Setting default whitelist 'file,crypto,data'
[AVIOContext @ 000001c5eb226a80] Statistics: 204608 bytes read, 0 seeks
[image2 @ 000001c5ea42e000] Opening 'D:/Peliprojektit/Projektit/Baltic_Loop/Krita_animaatiot/frame0032.png' for reading
[file @ 000001c5ea439d00] Setting default whitelist 'file,crypto,data'
[AVIOContext @ 000001c5eb226a80] Statistics: 208727 bytes read, 0 seeks
[image2 @ 000001c5ea42e000] Opening 'D:/Peliprojektit/Projektit/Baltic_Loop/Krita_animaatiot/frame0033.png' for reading
[file @ 000001c5ea439d00] Setting default whitelist 'file,crypto,data'
[AVIOContext @ 000001c5eb226a80] Statistics: 209502 bytes read, 0 seeks
[image2 @ 000001c5ea42e000] Opening 'D:/Peliprojektit/Projektit/Baltic_Loop/Krita_animaatiot/frame0034.png' for reading
[file @ 000001c5ea439d00] Setting default whitelist 'file,crypto,data'
[AVIOContext @ 000001c5eb226a80] Statistics: 211920 bytes read, 0 seeks
[image2 @ 000001c5ea42e000] Opening 'D:/Peliprojektit/Projektit/Baltic_Loop/Krita_animaatiot/frame0035.png' for reading
[file @ 000001c5ea439d00] Setting default whitelist 'file,crypto,data'
[AVIOContext @ 000001c5eb226a80] Statistics: 214918 bytes read, 0 seeks
[image2 @ 000001c5ea42e000] Opening 'D:/Peliprojektit/Projektit/Baltic_Loop/Krita_animaatiot/frame0036.png' for reading
[file @ 000001c5ea439d00] Setting default whitelist 'file,crypto,data'
[AVIOContext @ 000001c5eb226a80] Statistics: 218833 bytes read, 0 seeks
[image2 @ 000001c5ea42e000] Probe buffer size limit of 5000000 bytes reached
Input #0, image2, from 'D:/Peliprojektit/Projektit/Baltic_Loop/Krita_animaatiot/frame%04d.png':
  Duration: 00:00:01.68, start: 0.000000, bitrate: N/A
  Stream #0:0, 37, 1/25: Video: png, 1 reference frame, rgba(pc), 1920x1080 [SAR 2834:2834 DAR 16:9], 0/1, 25 fps, 25 tbr, 25 tbn, 25 tbc
Successfully opened the file.
Parsing a group of options: input url D:/Peliprojektit/Projektit/Baltic_Loop/Krita_animaatiot/palette.png.
Successfully parsed a group of options.
Opening an input file: D:/Peliprojektit/Projektit/Baltic_Loop/Krita_animaatiot/palette.png.
[NULL @ 000001c5ea4a45c0] Opening 'D:/Peliprojektit/Projektit/Baltic_Loop/Krita_animaatiot/palette.png' for reading
[file @ 000001c5ea3ecdc0] Setting default whitelist 'file,crypto,data'
[png_pipe @ 000001c5ea4a45c0] Format png_pipe probed with size=2048 and score=99
[png_pipe @ 000001c5ea4a45c0] Before avformat_find_stream_info() pos: 0 bytes read:104 seeks:0 nb_streams:1
[png_pipe @ 000001c5ea4a45c0] After avformat_find_stream_info() pos: 104 bytes read:104 seeks:0 frames:1
Input #1, png_pipe, from 'D:/Peliprojektit/Projektit/Baltic_Loop/Krita_animaatiot/palette.png':
  Duration: N/A, bitrate: N/A
  Stream #1:0, 1, 1/25: Video: png, 1 reference frame, rgba(pc), 16x16 [SAR 1:1 DAR 1:1], 0/1, 25 fps, 25 tbr, 25 tbn, 25 tbc
Successfully opened the file.
Parsing a group of options: output url D:/Peliprojektit/Projektit/Baltic_Loop/Krita_animaatiot/monkey.gif.
Successfully parsed a group of options.
Opening an output file: D:/Peliprojektit/Projektit/Baltic_Loop/Krita_animaatiot/monkey.gif.
[file @ 000001c5ea434780] Setting default whitelist 'file,crypto,data'
Successfully opened the file.
detected 8 logical cores
Stream mapping:
  Stream #0:0 (png) -> paletteuse:default
  Stream #1:0 (png) -> paletteuse:palette
  paletteuse -> Stream #0:0 (gif)
cur_dts is invalid st:0 (0) [init:0 i_done:0 finish:0] (this is harmless if it occurs once at the start per stream)
    Last message repeated 361 times
[image2 @ 000001c5ea42e000] Thread message queue blocking; consider raising the thread_queue_size option (current value: 8)
cur_dts is invalid st:0 (0) [init:0 i_done:0 finish:0] (this is harmless if it occurs once at the start per stream)
    Last message repeated 8 times
[graph 0 input from stream 0:0 @ 000001c5eb551b40] Setting 'video_size' to value '1920x1080'
[graph 0 input from stream 0:0 @ 000001c5eb551b40] Setting 'pix_fmt' to value '26'
[graph 0 input from stream 0:0 @ 000001c5eb551b40] Setting 'time_base' to value '1/24'
[graph 0 input from stream 0:0 @ 000001c5eb551b40] Setting 'pixel_aspect' to value '2834/2834'
[graph 0 input from stream 0:0 @ 000001c5eb551b40] Setting 'frame_rate' to value '24/1'
[graph 0 input from stream 0:0 @ 000001c5eb551b40] w:1920 h:1080 pixfmt:rgba tb:1/24 fr:24/1 sar:2834/2834
[graph 0 input from stream 1:0 @ 000001c5eb551840] Setting 'video_size' to value '16x16'
[graph 0 input from stream 1:0 @ 000001c5eb551840] Setting 'pix_fmt' to value '26'
[graph 0 input from stream 1:0 @ 000001c5eb551840] Setting 'time_base' to value '1/25'
[graph 0 input from stream 1:0 @ 000001c5eb551840] Setting 'pixel_aspect' to value '1/1'
[graph 0 input from stream 1:0 @ 000001c5eb551840] Setting 'frame_rate' to value '25/1'
[graph 0 input from stream 1:0 @ 000001c5eb551840] w:16 h:16 pixfmt:rgba tb:1/25 fr:25/1 sar:1/1
[format @ 000001c5eb551640] Setting 'pix_fmts' to value 'rgb8|bgr8|rgb4_byte|bgr4_byte|gray|pal8'
[auto_scaler_0 @ 000001c5eb550440] w:iw h:ih flags:'bilinear' interl:0
[Parsed_paletteuse_0 @ 000001c5eb550f40] auto-inserting filter 'auto_scaler_0' between the filter 'graph 0 input from stream 0:0' and the filter 'Parsed_paletteuse_0'
[auto_scaler_1 @ 000001c5eb550b40] w:iw h:ih flags:'bilinear' interl:0
[Parsed_paletteuse_0 @ 000001c5eb550f40] auto-inserting filter 'auto_scaler_1' between the filter 'graph 0 input from stream 1:0' and the filter 'Parsed_paletteuse_0'
[AVFilterGraph @ 000001c5ea4a2940] query_formats: 5 queried, 2 merged, 2 already done, 0 delayed
[swscaler @ 000001c5ef5c00c0] Forcing full internal H chroma due to input having non subsampled chroma
[auto_scaler_0 @ 000001c5eb550440] w:1920 h:1080 fmt:rgba sar:2834/2834 -> w:1920 h:1080 fmt:bgra sar:1/1 flags:0x2
[swscaler @ 000001c5ef5ef4c0] Forcing full internal H chroma due to input having non subsampled chroma
[auto_scaler_1 @ 000001c5eb550b40] w:16 h:16 fmt:rgba sar:1/1 -> w:16 h:16 fmt:bgra sar:1/1 flags:0x2
[Parsed_paletteuse_0 @ 000001c5eb550f40] [framesync @ 000001c5eb569408] Selected 1/600 time base
[Parsed_paletteuse_0 @ 000001c5eb550f40] [framesync @ 000001c5eb569408] Sync level 2
Output #0, gif, to 'D:/Peliprojektit/Projektit/Baltic_Loop/Krita_animaatiot/monkey.gif':
  Metadata:
    encoder         : Lavf58.67.100
  Stream #0:0, 0, 1/100: Video: gif, 1 reference frame, pal8(pc, progressive), 1920x1080 (0x0) [SAR 1:1 DAR 16:9], 0/1, q=2-31, 200 kb/s, 24 fps, 100 tbn (default)
    Metadata:
      encoder         : Lavc58.122.100 gif
Clipping frame in rate conversion by 0.000008
[gif @ 000001c5ea433a80] 92x106 image at pos (241;692) [area:1920x1080]
frame=    1 fps=0.0 q=-0.0 size=       0kB time=00:00:00.01 bitrate=   0.0kbits/s speed=0.38x    [gif @ 000001c5ea433a80] 190x128 image at pos (241;670) [area:1920x1080]
[gif @ 000001c5ea433a80] 190x219 image at pos (241;579) [area:1920x1080]
[gif @ 000001c5ea433a80] 191x271 image at pos (240;527) [area:1920x1080]
[gif @ 000001c5ea433a80] 203x392 image at pos (228;406) [area:1920x1080]
[gif @ 000001c5ea433a80] 203x430 image at pos (228;368) [area:1920x1080]
[gif @ 000001c5ea433a80] 203x531 image at pos (228;267) [area:1920x1080]
[gif @ 000001c5ea433a80] 300x555 image at pos (228;243) [area:1920x1080]
[gif @ 000001c5ea433a80] 385x596 image at pos (228;202) [area:1920x1080]
[gif @ 000001c5ea433a80] 632x625 image at pos (228;173) [area:1920x1080]
[gif @ 000001c5ea433a80] 671x625 image at pos (228;173) [area:1920x1080]
[gif @ 000001c5ea433a80] 715x625 image at pos (228;173) [area:1920x1080]
[gif @ 000001c5ea433a80] 797x625 image at pos (228;173) [area:1920x1080]
[gif @ 000001c5ea433a80] 852x625 image at pos (228;173) [area:1920x1080]
frame=   14 fps=0.0 q=-0.0 size=      29kB time=00:00:00.55 bitrate= 427.0kbits/s speed=   1x    [gif @ 000001c5ea433a80] 859x625 image at pos (228;173) [area:1920x1080]
    Last message repeated 5 times
[image2 @ 000001c5ea42e000] Opening 'D:/Peliprojektit/Projektit/Baltic_Loop/Krita_animaatiot/frame0037.png' for reading
[file @ 000001c5eb550c40] Setting default whitelist 'file,crypto,data'
[AVIOContext @ 000001c5eb5f84c0] Statistics: 224042 bytes read, 0 seeks
[gif @ 000001c5ea433a80] 859x625 image at pos (228;173) [area:1920x1080]
[image2 @ 000001c5ea42e000] Opening 'D:/Peliprojektit/Projektit/Baltic_Loop/Krita_animaatiot/frame0038.png' for reading
[file @ 000001c5eb551540] Setting default whitelist 'file,crypto,data'
[AVIOContext @ 000001c5eb5f88c0] Statistics: 234105 bytes read, 0 seeks
[gif @ 000001c5ea433a80] 859x625 image at pos (228;173) [area:1920x1080]
[image2 @ 000001c5ea42e000] Opening 'D:/Peliprojektit/Projektit/Baltic_Loop/Krita_animaatiot/frame0039.png' for reading
[file @ 000001c5eb551440] Setting default whitelist 'file,crypto,data'
[AVIOContext @ 000001c5eb5f8b40] Statistics: 238351 bytes read, 0 seeks
[gif @ 000001c5ea433a80] 859x625 image at pos (228;173) [area:1920x1080]
[image2 @ 000001c5ea42e000] Opening 'D:/Peliprojektit/Projektit/Baltic_Loop/Krita_animaatiot/frame0040.png' for reading
[file @ 000001c5eb551240] Setting default whitelist 'file,crypto,data'
[AVIOContext @ 000001c5eb5f8a00] Statistics: 243185 bytes read, 0 seeks
[gif @ 000001c5ea433a80] 859x642 image at pos (228;173) [area:1920x1080]
[image2 @ 000001c5ea42e000] Opening 'D:/Peliprojektit/Projektit/Baltic_Loop/Krita_animaatiot/frame0041.png' for reading
[file @ 000001c5eb551940] Setting default whitelist 'file,crypto,data'
[AVIOContext @ 000001c5eb5f8a00] Statistics: 243185 bytes read, 0 seeks
[gif @ 000001c5ea433a80] 859x770 image at pos (228;173) [area:1920x1080]
[gif @ 000001c5ea433a80] 859x833 image at pos (228;173) [area:1920x1080]
[gif @ 000001c5ea433a80] 859x860 image at pos (228;173) [area:1920x1080]
frame=   27 fps= 25 q=-0.0 size=     102kB time=00:00:01.09 bitrate= 770.1kbits/s speed=1.01x    [gif @ 000001c5ea433a80] 859x860 image at pos (228;173) [area:1920x1080]
    Last message repeated 12 times
frame=   40 fps= 25 q=-0.0 size=     216kB time=00:00:01.64 bitrate=1078.7kbits/s speed=1.02x    [gif @ 000001c5ea433a80] 859x860 image at pos (228;173) [area:1920x1080]
    Last message repeated 1 times
[Parsed_paletteuse_0 @ 000001c5eb550f40] [framesync @ 000001c5eb569408] Sync level 0
[out_0_0 @ 000001c5eb550d40] EOF on sink link out_0_0:default.
No more output streams to write to, finishing.
frame=   42 fps= 24 q=-0.0 Lsize=     247kB time=00:00:01.72 bitrate=1177.3kbits/s speed=0.989x    
[AVIOContext @ 000001c5ea42dd40] Statistics: 0 seeks, 5 writeouts
video:247kB audio:0kB subtitle:0kB other streams:0kB global headers:0kB muxing overhead: 0.007902%
Input file #0 (D:/Peliprojektit/Projektit/Baltic_Loop/Krita_animaatiot/frame%04d.png):
  Input stream #0:0 (video): 42 packets read (6226784 bytes); 42 frames decoded; 
  Total: 42 packets (6226784 bytes) demuxed
Input file #1 (D:/Peliprojektit/Projektit/Baltic_Loop/Krita_animaatiot/palette.png):
  Input stream #1:0 (video): 1 packets read (104 bytes); 1 frames decoded; 
  Total: 1 packets (104 bytes) demuxed
Output file #0 (D:/Peliprojektit/Projektit/Baltic_Loop/Krita_animaatiot/monkey.gif):
  Output stream #0:0 (video): 42 frames encoded; 42 packets muxed (253091 bytes); 
  Total: 42 packets (253091 bytes) muxed
43 frames successfully decoded, 0 decoding errors
[AVIOContext @ 000001c5ea434880] Statistics: 0 seeks, 1 writeouts
[AVIOContext @ 000001c5ea4a4bc0] Statistics: 104 bytes read, 0 seeks
